{
  "asset": {
    "generator": "Babylon.js v6.17.0",
    "version": "2.0"
  },
  "buffers": [
    {
      "uri": "MosquitoCoil_data.bin",
      "byteLength": 438912
    }
  ],
  "nodes": [
    {
      "name": "squareTube",
      "mesh": 0,
      "rotation": [
        0,
        0,
        1,
        0
      ],
      "scale": [
        1,
        -1,
        1
      ]
    }
  ],
  "meshes": [
    {
      "primitives": [
        {
          "attributes": {
            "POSITION": 0,
            "NORMAL": 1
          },
          "indices": 2,
          "material": 0
        }
      ]
    }
  ],
  "scenes": [
    {
      "nodes": [
        0
      ]
    }
  ],
  "scene": 0,
  "bufferViews": [
    {
      "buffer": 0,
      "byteLength": 146304,
      "name": "position - squareTube",
      "byteStride": 12,
      "byteOffset": 0
    },
    {
      "buffer": 0,
      "byteLength": 146304,
      "byteOffset": 146304,
      "name": "normal - squareTube",
      "byteStride": 12
    },
    {
      "buffer": 0,
      "byteLength": 97536,
      "byteOffset": 292608,
      "name": "uv - squareTube",
      "byteStride": 8
    },
    {
      "buffer": 0,
      "byteLength": 48768,
      "byteOffset": 390144,
      "name": "Indices - squareTube"
    }
  ],
  "accessors": [
    {
      "name": "position - squareTube",
      "bufferView": 0,
      "componentType": 5126,
      "count": 12192,
      "type": "VEC3",
      "min": [
        -0.9509697556495667,
        -0.02500000037252903,
        -0.9017788171768188
      ],
      "max": [
        1.049777626991272,
        0.02500000037252903,
        1.0005780458450317
      ],
      "byteOffset": 0
    },
    {
      "name": "normal - squareTube",
      "bufferView": 1,
      "componentType": 5126,
      "count": 12192,
      "type": "VEC3",
      "byteOffset": 0
    },
    {
      "name": "indices - squareTube",
      "bufferView": 3,
      "componentType": 5125,
      "count": 12192,
      "type": "SCALAR",
      "byteOffset": 0
    }
  ],
  "materials": [
    {
      "name": "mat",
      "pbrMetallicRoughness": {
        "baseColorFactor": [
          0,
          0.5,
          0,
          1
        ],
        "metallicFactor": 0,
        "roughnessFactor": 0.3288090062081349
      }
    }
  ]
}