{
    "accessors": {
        "IBM_pPlaneShape1-skin": {
            "bufferView": "bufferView_60",
            "byteOffset": 0,
            "byteStride": 64,
            "componentType": 5126,
            "count": 6,
            "max": [
                1,
                0,
                1,
                0,
                0,
                1,
                0,
                0,
                0,
                0,
                1,
                0,
                0,
                0,
                2,
                1
            ],
            "min": [
                -1,
                0,
                0,
                0,
                0,
                1,
                0,
                0,
                -1,
                0,
                -1,
                0,
                -2,
                0,
                -1,
                1
            ],
            "type": "MAT4"
        },
        "accessor_30": {
            "bufferView": "bufferView_61",
            "byteOffset": 0,
            "byteStride": 2,
            "componentType": 5123,
            "count": 42,
            "max": [
                8
            ],
            "min": [
                0
            ],
            "type": "SCALAR"
        },
        "accessor_32": {
            "bufferView": "bufferView_62",
            "byteOffset": 0,
            "byteStride": 12,
            "componentType": 5126,
            "count": 18,
            "max": [
                2.5,
                0,
                -0.5
            ],
            "min": [
                -2.5,
                0,
                -2.5
            ],
            "type": "VEC3"
        },
        "accessor_34": {
            "bufferView": "bufferView_62",
            "byteOffset": 216,
            "byteStride": 12,
            "componentType": 5126,
            "count": 18,
            "max": [
                0,
                1,
                0
            ],
            "min": [
                0,
                1,
                0
            ],
            "type": "VEC3"
        },
        "accessor_37": {
            "bufferView": "bufferView_62",
            "byteOffset": 720,
            "byteStride": 16,
            "componentType": 5126,
            "count": 18,
            "max": [
                0.88544,
                0.791712,
                0.665956,
                0.488787
            ],
            "min": [
                0.00106549,
                0.0194899,
                0.00601536,
                0.00169331
            ],
            "type": "VEC4"
        },
        "accessor_40": {
            "bufferView": "bufferView_62",
            "byteOffset": 432,
            "byteStride": 16,
            "componentType": 5126,
            "count": 18,
            "max": [
                0,
                3,
                4,
                5
            ],
            "min": [
                0,
                1,
                2,
                3
            ],
            "type": "VEC4"
        },
        "animAccessor_0": {
            "bufferView": "bufferView_60",
            "byteOffset": 384,
            "byteStride": 16,
            "componentType": 5126,
            "count": 2,
            "max": [
                0,
                0.707107,
                0,
                1
            ],
            "min": [
                0,
                0,
                0,
                0.707107
            ],
            "type": "VEC4"
        },
        "animAccessor_1": {
            "bufferView": "bufferView_60",
            "byteOffset": 416,
            "byteStride": 4,
            "componentType": 5126,
            "count": 2,
            "max": [
                1
            ],
            "min": [
                0
            ],
            "type": "SCALAR"
        },
        "animAccessor_2": {
            "bufferView": "bufferView_60",
            "byteOffset": 424,
            "byteStride": 16,
            "componentType": 5126,
            "count": 7,
            "max": [
                0,
                0,
                0.707107,
                1
            ],
            "min": [
                0,
                0,
                0,
                0.707107
            ],
            "type": "VEC4"
        },
        "animAccessor_3": {
            "bufferView": "bufferView_60",
            "byteOffset": 536,
            "byteStride": 4,
            "componentType": 5126,
            "count": 7,
            "max": [
                1
            ],
            "min": [
                0
            ],
            "type": "SCALAR"
        },
        "animAccessor_4": {
            "bufferView": "bufferView_60",
            "byteOffset": 564,
            "byteStride": 16,
            "componentType": 5126,
            "count": 7,
            "max": [
                0,
                0,
                0,
                1
            ],
            "min": [
                0,
                0,
                0,
                1
            ],
            "type": "VEC4"
        }
    },
    "animations": {
        "animation_0": {
            "channels": [
                {
                    "sampler": "animation_0_rotation_sampler",
                    "target": {
                        "id": "__joint1_joint2_target_0",
                        "path": "rotation"
                    }
                }
            ],
            "parameters": {
                "TIME": "animAccessor_1",
                "rotation": "animAccessor_0"
            },
            "samplers": {
                "animation_0_rotation_sampler": {
                    "input": "TIME",
                    "interpolation": "LINEAR",
                    "output": "rotation"
                }
            }
        },
        "animation_1": {
            "channels": [
                {
                    "sampler": "animation_1_rotation_sampler",
                    "target": {
                        "id": "__joint1_joint4_joint5_target_1",
                        "path": "rotation"
                    }
                }
            ],
            "parameters": {
                "TIME": "animAccessor_3",
                "rotation": "animAccessor_2"
            },
            "samplers": {
                "animation_1_rotation_sampler": {
                    "input": "TIME",
                    "interpolation": "LINEAR",
                    "output": "rotation"
                }
            }
        },
        "animation_2": {
            "channels": [
                {
                    "sampler": "animation_2_rotation_sampler",
                    "target": {
                        "id": "__joint1_joint4_joint5_target_2",
                        "path": "rotation"
                    }
                }
            ],
            "parameters": {
                "TIME": "animAccessor_3",
                "rotation": "animAccessor_4"
            },
            "samplers": {
                "animation_2_rotation_sampler": {
                    "input": "TIME",
                    "interpolation": "LINEAR",
                    "output": "rotation"
                }
            }
        }
    },
    "asset": {
        "generator": "collada2gltf@0e0246bf330a4b34ee1d331960e5e82533540ba5",
        "premultipliedAlpha": true,
        "profile": {
            "api": "WebGL",
            "version": "1.0.2"
        },
        "version": "1.0.1"
    },
    "bufferViews": {
        "bufferView_60": {
            "buffer": "EmaSimpleSkin",
            "byteLength": 676,
            "byteOffset": 0
        },
        "bufferView_61": {
            "buffer": "EmaSimpleSkin",
            "byteLength": 84,
            "byteOffset": 676,
            "target": 34963
        },
        "bufferView_62": {
            "buffer": "EmaSimpleSkin",
            "byteLength": 1008,
            "byteOffset": 760,
            "target": 34962
        }
    },
    "buffers": {
        "EmaSimpleSkin": {
            "byteLength": 1768,
            "type": "arraybuffer",
            "uri": "EmaSimpleSkin.bin"
        }
    },
    "materials": {
        "lambert1-fx": {
            "name": "lambert1",
            "technique": "technique0",
            "values": {
                "ambient": [
                    0,
                    0,
                    0,
                    1
                ],
                "diffuse": [
                    0.4,
                    0.4,
                    0.4,
                    1
                ],
                "emission": [
                    0,
                    0,
                    0,
                    1
                ],
                "transparency": 1
            }
        }
    },
    "meshes": {
        "pPlaneShape1": {
            "name": "pPlaneShape1",
            "primitives": [
                {
                    "attributes": {
                        "JOINT": "accessor_40",
                        "NORMAL": "accessor_34",
                        "POSITION": "accessor_32",
                        "WEIGHT": "accessor_37"
                    },
                    "indices": "accessor_30",
                    "material": "lambert1-fx",
                    "mode": 4
                }
            ]
        }
    },
    "nodes": {
        "__joint1_joint2_target_0": {
            "children": [
                "_joint1_joint2_joint3"
            ],
            "jointName": "_joint1_joint2",
            "name": "joint2",
            "rotation": [
                0,
                0.664796,
                0,
                0.747025
            ],
            "scale": [
                1,
                1,
                1
            ],
            "translation": [
                0,
                0,
                0
            ]
        },
        "__joint1_joint4_joint5_target_1": {
            "children": [
                "__joint1_joint4_joint5_target_2"
            ],
            "rotation": [
                0,
                0,
                0.64644,
                0.762965
            ],
            "scale": [
                1,
                1,
                1
            ],
            "translation": [
                0,
                0,
                0
            ]
        },
        "__joint1_joint4_joint5_target_2": {
            "children": [
                "_joint1_joint4_joint5_joint6"
            ],
            "jointName": "_joint1_joint4_joint5",
            "name": "joint5",
            "rotation": [
                0,
                0,
                0,
                1
            ],
            "scale": [
                1,
                1,
                1
            ],
            "translation": [
                0,
                0,
                0
            ]
        },
        "_joint1": {
            "children": [
                "_joint1_joint2",
                "_joint1_joint4"
            ],
            "jointName": "_joint1",
            "matrix": [
                1,
                0,
                0,
                0,
                0,
                1,
                0,
                0,
                0,
                0,
                1,
                0,
                0,
                0,
                -2,
                1
            ],
            "name": "joint1"
        },
        "_joint1_joint2": {
            "children": [
                "__joint1_joint2_target_0"
            ],
            "matrix": [
                1,
                0,
                0,
                0,
                0,
                1,
                0,
                0,
                0,
                0,
                1,
                0,
                1,
                0,
                0,
                1
            ]
        },
        "_joint1_joint2_joint3": {
            "children": [],
            "jointName": "_joint1_joint2_joint3",
            "matrix": [
                1,
                0,
                0,
                0,
                0,
                1,
                0,
                0,
                0,
                0,
                1,
                0,
                1,
                0,
                0,
                1
            ],
            "name": "joint3"
        },
        "_joint1_joint4": {
            "children": [
                "_joint1_joint4_joint5"
            ],
            "jointName": "_joint1_joint4",
            "matrix": [
                -1,
                0,
                -8.97932e-11,
                0,
                0,
                1,
                0,
                0,
                8.97932e-11,
                0,
                -1,
                0,
                0,
                0,
                1,
                1
            ],
            "name": "joint4"
        },
        "_joint1_joint4_joint5": {
            "children": [
                "__joint1_joint4_joint5_target_1"
            ],
            "matrix": [
                4.48966e-11,
                0,
                1,
                0,
                0,
                1,
                0,
                0,
                -1,
                0,
                4.48966e-11,
                0,
                2,
                0,
                0,
                1
            ]
        },
        "_joint1_joint4_joint5_joint6": {
            "children": [],
            "jointName": "_joint1_joint4_joint5_joint6",
            "matrix": [
                1,
                0,
                0,
                0,
                0,
                1,
                0,
                0,
                0,
                0,
                1,
                0,
                1,
                0,
                0,
                1
            ],
            "name": "joint6"
        },
        "_pPlane1": {
            "children": [],
            "meshes": [
                "pPlaneShape1"
            ],
            "name": "pPlane1",
            "skeletons": [
                "_joint1",
                "_joint1_joint2",
                "_joint1_joint2_joint3",
                "_joint1_joint4",
                "_joint1_joint4_joint5",
                "_joint1_joint4_joint5_joint6"
            ],
            "skin": "pPlaneShape1-skin"
        }
    },
    "programs": {
        "program_0": {
            "attributes": [
                "a_joint",
                "a_normal",
                "a_position",
                "a_weight"
            ],
            "fragmentShader": "EmaSimpleSkin0FS",
            "vertexShader": "EmaSimpleSkin0VS"
        }
    },
    "scene": "defaultScene",
    "scenes": {
        "defaultScene": {
            "nodes": [
                "_joint1",
                "_pPlane1"
            ]
        }
    },
    "shaders": {
        "EmaSimpleSkin0FS": {
            "type": 35632,
            "uri": "EmaSimpleSkin0FS.glsl"
        },
        "EmaSimpleSkin0VS": {
            "type": 35633,
            "uri": "EmaSimpleSkin0VS.glsl"
        }
    },
    "skins": {
        "pPlaneShape1-skin": {
            "bindShapeMatrix": [
                1,
                0,
                0,
                0,
                0,
                1,
                0,
                0,
                0,
                0,
                1,
                0,
                0,
                0,
                0,
                1
            ],
            "inverseBindMatrices": "IBM_pPlaneShape1-skin",
            "jointNames": [
                "_joint1",
                "_joint1_joint2",
                "_joint1_joint2_joint3",
                "_joint1_joint4",
                "_joint1_joint4_joint5",
                "_joint1_joint4_joint5_joint6"
            ],
            "name": "pPlaneShape1-skin"
        }
    },
    "techniques": {
        "technique0": {
            "attributes": {
                "a_joint": "joint",
                "a_normal": "normal",
                "a_position": "position",
                "a_weight": "weight"
            },
            "parameters": {
                "ambient": {
                    "type": 35666
                },
                "diffuse": {
                    "type": 35666
                },
                "emission": {
                    "type": 35666
                },
                "joint": {
                    "semantic": "JOINT",
                    "type": 35666
                },
                "jointMat": {
                    "count": 6,
                    "semantic": "JOINTMATRIX",
                    "type": 35676
                },
                "modelViewMatrix": {
                    "semantic": "MODELVIEW",
                    "type": 35676
                },
                "normal": {
                    "semantic": "NORMAL",
                    "type": 35665
                },
                "normalMatrix": {
                    "semantic": "MODELVIEWINVERSETRANSPOSE",
                    "type": 35675
                },
                "position": {
                    "semantic": "POSITION",
                    "type": 35665
                },
                "projectionMatrix": {
                    "semantic": "PROJECTION",
                    "type": 35676
                },
                "transparency": {
                    "type": 5126
                },
                "weight": {
                    "semantic": "WEIGHT",
                    "type": 35666
                }
            },
            "program": "program_0",
            "states": {
                "enable": [
                    2929,
                    3042
                ],
                "functions": {
                    "blendEquationSeparate": [
                        32774,
                        32774
                    ],
                    "blendFuncSeparate": [
                        1,
                        771,
                        1,
                        771
                    ],
                    "depthMask": [
                        false
                    ]
                }
            },
            "uniforms": {
                "u_ambient": "ambient",
                "u_diffuse": "diffuse",
                "u_emission": "emission",
                "u_jointMat": "jointMat",
                "u_modelViewMatrix": "modelViewMatrix",
                "u_normalMatrix": "normalMatrix",
                "u_projectionMatrix": "projectionMatrix",
                "u_transparency": "transparency"
            }
        }
    }
}