{
  "asset": {
    "generator": "Babylon.js v6.16.0",
    "version": "2.0"
  },
  "buffers": [
    {
      "uri": "SchoolDesk_data.bin",
      "byteLength": 8208
    }
  ],
  "nodes": [
    {
      "name": "desk",
      "translation": [
        0,
        14,
        0
      ],
      "mesh": 0,
      "rotation": [
        0,
        0,
        1,
        0
      ],
      "scale": [
        1,
        -1,
        1
      ],
      "children": [
        1,
        2,
        3,
        4,
        5
      ]
    },
    {
      "name": "desk_top",
      "mesh": 1
    },
    {
      "name": "desk_leg1",
      "translation": [
        -5.5,
        -7,
        -3.5
      ],
      "mesh": 2
    },
    {
      "name": "desk_leg2",
      "translation": [
        -5.5,
        -7,
        3.5
      ],
      "mesh": 3
    },
    {
      "name": "desk_leg3",
      "translation": [
        5.5,
        -7,
        -3.5
      ],
      "mesh": 4
    },
    {
      "name": "desk_leg4",
      "translation": [
        5.5,
        -7,
        3.5
      ],
      "mesh": 5
    },
    {
      "name": "desk_bar_bottom_1to2",
      "translation": [
        5.5,
        2,
        0
      ],
      "mesh": 6,
      "rotation": [
        0,
        0,
        1,
        0
      ],
      "scale": [
        1,
        -1,
        1
      ]
    },
    {
      "name": "desk_bar_bottom_3to4",
      "translation": [
        -5.5,
        2,
        0
      ],
      "mesh": 7,
      "rotation": [
        0,
        0,
        1,
        0
      ],
      "scale": [
        1,
        -1,
        1
      ]
    },
    {
      "name": "desk_bar_top_1to3",
      "translation": [
        0,
        13,
        3.5
      ],
      "mesh": 8,
      "rotation": [
        0,
        0,
        1,
        0
      ],
      "scale": [
        1,
        -1,
        1
      ]
    }
  ],
  "meshes": [
    {
      "primitives": [
        {
          "attributes": {
            "POSITION": 0,
            "NORMAL": 1
          },
          "indices": 2,
          "material": 0
        }
      ]
    },
    {
      "primitives": [
        {
          "attributes": {
            "POSITION": 3,
            "NORMAL": 4,
            "TEXCOORD_0": 5
          },
          "indices": 6,
          "material": 1
        }
      ]
    },
    {
      "primitives": [
        {
          "attributes": {
            "POSITION": 7,
            "NORMAL": 8
          },
          "indices": 9,
          "material": 0
        }
      ]
    },
    {
      "primitives": [
        {
          "attributes": {
            "POSITION": 10,
            "NORMAL": 11
          },
          "indices": 12,
          "material": 0
        }
      ]
    },
    {
      "primitives": [
        {
          "attributes": {
            "POSITION": 13,
            "NORMAL": 14
          },
          "indices": 15,
          "material": 0
        }
      ]
    },
    {
      "primitives": [
        {
          "attributes": {
            "POSITION": 16,
            "NORMAL": 17
          },
          "indices": 18,
          "material": 0
        }
      ]
    },
    {
      "primitives": [
        {
          "attributes": {
            "POSITION": 19,
            "NORMAL": 20
          },
          "indices": 21,
          "material": 0
        }
      ]
    },
    {
      "primitives": [
        {
          "attributes": {
            "POSITION": 22,
            "NORMAL": 23
          },
          "indices": 24,
          "material": 0
        }
      ]
    },
    {
      "primitives": [
        {
          "attributes": {
            "POSITION": 25,
            "NORMAL": 26
          },
          "indices": 27,
          "material": 0
        }
      ]
    }
  ],
  "scenes": [
    {
      "nodes": [
        0,
        6,
        7,
        8
      ]
    }
  ],
  "scene": 0,
  "bufferViews": [
    {
      "buffer": 0,
      "byteLength": 288,
      "name": "position - desk",
      "byteStride": 12,
      "byteOffset": 0
    },
    {
      "buffer": 0,
      "byteLength": 288,
      "byteOffset": 288,
      "name": "normal - desk",
      "byteStride": 12
    },
    {
      "buffer": 0,
      "byteLength": 192,
      "byteOffset": 576,
      "name": "uv - desk",
      "byteStride": 8
    },
    {
      "buffer": 0,
      "byteLength": 144,
      "byteOffset": 768,
      "name": "Indices - desk"
    },
    {
      "buffer": 0,
      "byteLength": 288,
      "byteOffset": 912,
      "name": "position - desk_top",
      "byteStride": 12
    },
    {
      "buffer": 0,
      "byteLength": 288,
      "byteOffset": 1200,
      "name": "normal - desk_top",
      "byteStride": 12
    },
    {
      "buffer": 0,
      "byteLength": 192,
      "byteOffset": 1488,
      "name": "uv - desk_top",
      "byteStride": 8
    },
    {
      "buffer": 0,
      "byteLength": 144,
      "byteOffset": 1680,
      "name": "Indices - desk_top"
    },
    {
      "buffer": 0,
      "byteLength": 288,
      "byteOffset": 1824,
      "name": "position - desk_leg1",
      "byteStride": 12
    },
    {
      "buffer": 0,
      "byteLength": 288,
      "byteOffset": 2112,
      "name": "normal - desk_leg1",
      "byteStride": 12
    },
    {
      "buffer": 0,
      "byteLength": 192,
      "byteOffset": 2400,
      "name": "uv - desk_leg1",
      "byteStride": 8
    },
    {
      "buffer": 0,
      "byteLength": 144,
      "byteOffset": 2592,
      "name": "Indices - desk_leg1"
    },
    {
      "buffer": 0,
      "byteLength": 288,
      "byteOffset": 2736,
      "name": "position - desk_leg2",
      "byteStride": 12
    },
    {
      "buffer": 0,
      "byteLength": 288,
      "byteOffset": 3024,
      "name": "normal - desk_leg2",
      "byteStride": 12
    },
    {
      "buffer": 0,
      "byteLength": 192,
      "byteOffset": 3312,
      "name": "uv - desk_leg2",
      "byteStride": 8
    },
    {
      "buffer": 0,
      "byteLength": 144,
      "byteOffset": 3504,
      "name": "Indices - desk_leg2"
    },
    {
      "buffer": 0,
      "byteLength": 288,
      "byteOffset": 3648,
      "name": "position - desk_leg3",
      "byteStride": 12
    },
    {
      "buffer": 0,
      "byteLength": 288,
      "byteOffset": 3936,
      "name": "normal - desk_leg3",
      "byteStride": 12
    },
    {
      "buffer": 0,
      "byteLength": 192,
      "byteOffset": 4224,
      "name": "uv - desk_leg3",
      "byteStride": 8
    },
    {
      "buffer": 0,
      "byteLength": 144,
      "byteOffset": 4416,
      "name": "Indices - desk_leg3"
    },
    {
      "buffer": 0,
      "byteLength": 288,
      "byteOffset": 4560,
      "name": "position - desk_leg4",
      "byteStride": 12
    },
    {
      "buffer": 0,
      "byteLength": 288,
      "byteOffset": 4848,
      "name": "normal - desk_leg4",
      "byteStride": 12
    },
    {
      "buffer": 0,
      "byteLength": 192,
      "byteOffset": 5136,
      "name": "uv - desk_leg4",
      "byteStride": 8
    },
    {
      "buffer": 0,
      "byteLength": 144,
      "byteOffset": 5328,
      "name": "Indices - desk_leg4"
    },
    {
      "buffer": 0,
      "byteLength": 288,
      "byteOffset": 5472,
      "name": "position - desk_bar_bottom_1to2",
      "byteStride": 12
    },
    {
      "buffer": 0,
      "byteLength": 288,
      "byteOffset": 5760,
      "name": "normal - desk_bar_bottom_1to2",
      "byteStride": 12
    },
    {
      "buffer": 0,
      "byteLength": 192,
      "byteOffset": 6048,
      "name": "uv - desk_bar_bottom_1to2",
      "byteStride": 8
    },
    {
      "buffer": 0,
      "byteLength": 144,
      "byteOffset": 6240,
      "name": "Indices - desk_bar_bottom_1to2"
    },
    {
      "buffer": 0,
      "byteLength": 288,
      "byteOffset": 6384,
      "name": "position - desk_bar_bottom_3to4",
      "byteStride": 12
    },
    {
      "buffer": 0,
      "byteLength": 288,
      "byteOffset": 6672,
      "name": "normal - desk_bar_bottom_3to4",
      "byteStride": 12
    },
    {
      "buffer": 0,
      "byteLength": 192,
      "byteOffset": 6960,
      "name": "uv - desk_bar_bottom_3to4",
      "byteStride": 8
    },
    {
      "buffer": 0,
      "byteLength": 144,
      "byteOffset": 7152,
      "name": "Indices - desk_bar_bottom_3to4"
    },
    {
      "buffer": 0,
      "byteLength": 288,
      "byteOffset": 7296,
      "name": "position - desk_bar_top_1to3",
      "byteStride": 12
    },
    {
      "buffer": 0,
      "byteLength": 288,
      "byteOffset": 7584,
      "name": "normal - desk_bar_top_1to3",
      "byteStride": 12
    },
    {
      "buffer": 0,
      "byteLength": 192,
      "byteOffset": 7872,
      "name": "uv - desk_bar_top_1to3",
      "byteStride": 8
    },
    {
      "buffer": 0,
      "byteLength": 144,
      "byteOffset": 8064,
      "name": "Indices - desk_bar_top_1to3"
    }
  ],
  "accessors": [
    {
      "name": "position - desk",
      "bufferView": 0,
      "componentType": 5126,
      "count": 24,
      "type": "VEC3",
      "min": [
        -0.005,
        -0.005,
        -0.005
      ],
      "max": [
        0.005,
        0.005,
        0.005
      ],
      "byteOffset": 0
    },
    {
      "name": "normal - desk",
      "bufferView": 1,
      "componentType": 5126,
      "count": 24,
      "type": "VEC3",
      "byteOffset": 0
    },
    {
      "name": "indices - desk",
      "bufferView": 3,
      "componentType": 5125,
      "count": 36,
      "type": "SCALAR",
      "byteOffset": 0
    },
    {
      "name": "position - desk_top",
      "bufferView": 4,
      "componentType": 5126,
      "count": 24,
      "type": "VEC3",
      "min": [
        -6.5,
        -0.2,
        -4.5
      ],
      "max": [
        6.5,
        0.2,
        4.5
      ],
      "byteOffset": 0
    },
    {
      "name": "normal - desk_top",
      "bufferView": 5,
      "componentType": 5126,
      "count": 24,
      "type": "VEC3",
      "byteOffset": 0
    },
    {
      "name": "uv - desk_top",
      "bufferView": 6,
      "componentType": 5126,
      "count": 24,
      "type": "VEC2",
      "byteOffset": 0
    },
    {
      "name": "indices - desk_top",
      "bufferView": 7,
      "componentType": 5125,
      "count": 36,
      "type": "SCALAR",
      "byteOffset": 0
    },
    {
      "name": "position - desk_leg1",
      "bufferView": 8,
      "componentType": 5126,
      "count": 24,
      "type": "VEC3",
      "min": [
        -0.15,
        -7,
        -0.15
      ],
      "max": [
        0.15,
        7,
        0.15
      ],
      "byteOffset": 0
    },
    {
      "name": "normal - desk_leg1",
      "bufferView": 9,
      "componentType": 5126,
      "count": 24,
      "type": "VEC3",
      "byteOffset": 0
    },
    {
      "name": "indices - desk_leg1",
      "bufferView": 11,
      "componentType": 5125,
      "count": 36,
      "type": "SCALAR",
      "byteOffset": 0
    },
    {
      "name": "position - desk_leg2",
      "bufferView": 12,
      "componentType": 5126,
      "count": 24,
      "type": "VEC3",
      "min": [
        -0.15,
        -7,
        -0.15
      ],
      "max": [
        0.15,
        7,
        0.15
      ],
      "byteOffset": 0
    },
    {
      "name": "normal - desk_leg2",
      "bufferView": 13,
      "componentType": 5126,
      "count": 24,
      "type": "VEC3",
      "byteOffset": 0
    },
    {
      "name": "indices - desk_leg2",
      "bufferView": 15,
      "componentType": 5125,
      "count": 36,
      "type": "SCALAR",
      "byteOffset": 0
    },
    {
      "name": "position - desk_leg3",
      "bufferView": 16,
      "componentType": 5126,
      "count": 24,
      "type": "VEC3",
      "min": [
        -0.15,
        -7,
        -0.15
      ],
      "max": [
        0.15,
        7,
        0.15
      ],
      "byteOffset": 0
    },
    {
      "name": "normal - desk_leg3",
      "bufferView": 17,
      "componentType": 5126,
      "count": 24,
      "type": "VEC3",
      "byteOffset": 0
    },
    {
      "name": "indices - desk_leg3",
      "bufferView": 19,
      "componentType": 5125,
      "count": 36,
      "type": "SCALAR",
      "byteOffset": 0
    },
    {
      "name": "position - desk_leg4",
      "bufferView": 20,
      "componentType": 5126,
      "count": 24,
      "type": "VEC3",
      "min": [
        -0.15,
        -7,
        -0.15
      ],
      "max": [
        0.15,
        7,
        0.15
      ],
      "byteOffset": 0
    },
    {
      "name": "normal - desk_leg4",
      "bufferView": 21,
      "componentType": 5126,
      "count": 24,
      "type": "VEC3",
      "byteOffset": 0
    },
    {
      "name": "indices - desk_leg4",
      "bufferView": 23,
      "componentType": 5125,
      "count": 36,
      "type": "SCALAR",
      "byteOffset": 0
    },
    {
      "name": "position - desk_bar_bottom_1to2",
      "bufferView": 24,
      "componentType": 5126,
      "count": 24,
      "type": "VEC3",
      "min": [
        -0.15,
        -0.1,
        -3.5
      ],
      "max": [
        0.15,
        0.1,
        3.5
      ],
      "byteOffset": 0
    },
    {
      "name": "normal - desk_bar_bottom_1to2",
      "bufferView": 25,
      "componentType": 5126,
      "count": 24,
      "type": "VEC3",
      "byteOffset": 0
    },
    {
      "name": "indices - desk_bar_bottom_1to2",
      "bufferView": 27,
      "componentType": 5125,
      "count": 36,
      "type": "SCALAR",
      "byteOffset": 0
    },
    {
      "name": "position - desk_bar_bottom_3to4",
      "bufferView": 28,
      "componentType": 5126,
      "count": 24,
      "type": "VEC3",
      "min": [
        -0.15,
        -0.1,
        -3.5
      ],
      "max": [
        0.15,
        0.1,
        3.5
      ],
      "byteOffset": 0
    },
    {
      "name": "normal - desk_bar_bottom_3to4",
      "bufferView": 29,
      "componentType": 5126,
      "count": 24,
      "type": "VEC3",
      "byteOffset": 0
    },
    {
      "name": "indices - desk_bar_bottom_3to4",
      "bufferView": 31,
      "componentType": 5125,
      "count": 36,
      "type": "SCALAR",
      "byteOffset": 0
    },
    {
      "name": "position - desk_bar_top_1to3",
      "bufferView": 32,
      "componentType": 5126,
      "count": 24,
      "type": "VEC3",
      "min": [
        -5.5,
        -0.1,
        -0.1
      ],
      "max": [
        5.5,
        0.1,
        0.1
      ],
      "byteOffset": 0
    },
    {
      "name": "normal - desk_bar_top_1to3",
      "bufferView": 33,
      "componentType": 5126,
      "count": 24,
      "type": "VEC3",
      "byteOffset": 0
    },
    {
      "name": "indices - desk_bar_top_1to3",
      "bufferView": 35,
      "componentType": 5125,
      "count": 36,
      "type": "SCALAR",
      "byteOffset": 0
    }
  ],
  "materials": [
    {
      "name": "default material",
      "pbrMetallicRoughness": {
        "baseColorFactor": [
          0.5,
          0.5,
          0.5,
          1
        ],
        "metallicFactor": 0,
        "roughnessFactor": 0.3288090062081349
      }
    },
    {
      "name": "material_desk_top",
      "pbrMetallicRoughness": {
        "baseColorFactor": [
          0.5,
          0.5,
          0.5,
          1
        ],
        "metallicFactor": 0,
        "roughnessFactor": 0.3288090062081349,
        "baseColorTexture": {
          "index": 0
        }
      }
    }
  ],
  "textures": [
    {
      "source": 0,
      "sampler": 0
    }
  ],
  "samplers": [
    {
      "wrapS": 33071,
      "wrapT": 33071,
      "magFilter": 9729,
      "minFilter": 9987
    }
  ],
  "images": [
    {
      "name": "DynamicTexture image",
      "uri": "SchoolDesk_img0.png"
    }
  ]
}