{
  "asset": {
    "generator": "Babylon.js v6.10.0",
    "version": "2.0"
  },
  "buffers": [
    {
      "uri": "CardboardBox_data.bin",
      "byteLength": 12768
    }
  ],
  "nodes": [
    {
      "name": "box",
      "mesh": 0,
      "rotation": [
        0,
        0,
        1,
        0
      ],
      "scale": [
        1,
        -1,
        1
      ],
      "children": [
        1,
        2,
        3,
        4
      ]
    },
    {
      "name": "boxL",
      "translation": [
        -3.12,
        -2.35,
        0
      ],
      "mesh": 1
    },
    {
      "name": "boxR",
      "translation": [
        3.12,
        -2.35,
        0
      ],
      "mesh": 2
    },
    {
      "name": "boxF",
      "translation": [
        0,
        -2.35,
        2.35
      ],
      "mesh": 3
    },
    {
      "name": "boxB",
      "translation": [
        0,
        -2.35,
        -2.35
      ],
      "mesh": 4
    },
    {
      "name": "boxBottom",
      "translation": [
        0,
        -4.699999809265137,
        0
      ],
      "mesh": 5,
      "rotation": [
        0,
        0,
        1,
        0
      ],
      "scale": [
        1,
        -1,
        1
      ]
    },
    {
      "name": "boxTopL",
      "translation": [
        0,
        1.1,
        0
      ],
      "mesh": 6
    },
    {
      "name": "boxTopR",
      "translation": [
        0,
        1.1,
        0
      ],
      "mesh": 7
    },
    {
      "name": "boxTopF",
      "translation": [
        0,
        1.1,
        0
      ],
      "mesh": 8
    },
    {
      "name": "boxTopB",
      "translation": [
        0,
        1.1,
        0
      ],
      "mesh": 9
    },
    {
      "name": "hingeL",
      "translation": [
        3.119999885559082,
        0,
        0
      ],
      "rotation": [
        0,
        0,
        0.9238795292366128,
        0.38268342717215614
      ],
      "mesh": 10,
      "scale": [
        0.999999982885729,
        -0.999999982885729,
        1
      ],
      "children": [
        6
      ]
    },
    {
      "name": "hingeR",
      "translation": [
        -3.119999885559082,
        0,
        0
      ],
      "rotation": [
        0,
        0,
        0.9238795292366128,
        -0.38268342717215614
      ],
      "mesh": 11,
      "scale": [
        0.999999982885729,
        -0.999999982885729,
        1
      ],
      "children": [
        7
      ]
    },
    {
      "name": "hingeF",
      "translation": [
        0,
        0,
        2.3499999046325684
      ],
      "rotation": [
        0,
        -0.38268342717215614,
        0.9238795292366128,
        0
      ],
      "mesh": 12,
      "scale": [
        1,
        -0.999999982885729,
        0.999999982885729
      ],
      "children": [
        8
      ]
    },
    {
      "name": "hingeB",
      "translation": [
        0,
        0,
        -2.3499999046325684
      ],
      "rotation": [
        0,
        0.38268342717215614,
        0.9238795292366128,
        0
      ],
      "mesh": 13,
      "scale": [
        1,
        -0.999999982885729,
        0.999999982885729
      ],
      "children": [
        9
      ]
    }
  ],
  "meshes": [
    {
      "primitives": [
        {
          "attributes": {
            "POSITION": 0,
            "NORMAL": 1
          },
          "indices": 2,
          "material": 0
        }
      ]
    },
    {
      "primitives": [
        {
          "attributes": {
            "POSITION": 3,
            "NORMAL": 4
          },
          "indices": 5,
          "material": 1
        }
      ]
    },
    {
      "primitives": [
        {
          "attributes": {
            "POSITION": 6,
            "NORMAL": 7
          },
          "indices": 8,
          "material": 1
        }
      ]
    },
    {
      "primitives": [
        {
          "attributes": {
            "POSITION": 9,
            "NORMAL": 10
          },
          "indices": 11,
          "material": 1
        }
      ]
    },
    {
      "primitives": [
        {
          "attributes": {
            "POSITION": 12,
            "NORMAL": 13
          },
          "indices": 14,
          "material": 1
        }
      ]
    },
    {
      "primitives": [
        {
          "attributes": {
            "POSITION": 15,
            "NORMAL": 16
          },
          "indices": 17,
          "material": 1
        }
      ]
    },
    {
      "primitives": [
        {
          "attributes": {
            "POSITION": 18,
            "NORMAL": 19
          },
          "indices": 20,
          "material": 1
        }
      ]
    },
    {
      "primitives": [
        {
          "attributes": {
            "POSITION": 21,
            "NORMAL": 22
          },
          "indices": 23,
          "material": 1
        }
      ]
    },
    {
      "primitives": [
        {
          "attributes": {
            "POSITION": 24,
            "NORMAL": 25
          },
          "indices": 26,
          "material": 1
        }
      ]
    },
    {
      "primitives": [
        {
          "attributes": {
            "POSITION": 27,
            "NORMAL": 28
          },
          "indices": 29,
          "material": 1
        }
      ]
    },
    {
      "primitives": [
        {
          "attributes": {
            "POSITION": 30,
            "NORMAL": 31
          },
          "indices": 32,
          "material": 0
        }
      ]
    },
    {
      "primitives": [
        {
          "attributes": {
            "POSITION": 33,
            "NORMAL": 34
          },
          "indices": 35,
          "material": 0
        }
      ]
    },
    {
      "primitives": [
        {
          "attributes": {
            "POSITION": 36,
            "NORMAL": 37
          },
          "indices": 38,
          "material": 0
        }
      ]
    },
    {
      "primitives": [
        {
          "attributes": {
            "POSITION": 39,
            "NORMAL": 40
          },
          "indices": 41,
          "material": 0
        }
      ]
    }
  ],
  "scenes": [
    {
      "nodes": [
        0,
        5,
        10,
        11,
        12,
        13
      ]
    }
  ],
  "scene": 0,
  "bufferViews": [
    {
      "buffer": 0,
      "byteLength": 288,
      "name": "position - box",
      "byteStride": 12,
      "byteOffset": 0
    },
    {
      "buffer": 0,
      "byteLength": 288,
      "byteOffset": 288,
      "name": "normal - box",
      "byteStride": 12
    },
    {
      "buffer": 0,
      "byteLength": 192,
      "byteOffset": 576,
      "name": "uv - box",
      "byteStride": 8
    },
    {
      "buffer": 0,
      "byteLength": 144,
      "byteOffset": 768,
      "name": "Indices - box"
    },
    {
      "buffer": 0,
      "byteLength": 288,
      "byteOffset": 912,
      "name": "position - boxL",
      "byteStride": 12
    },
    {
      "buffer": 0,
      "byteLength": 288,
      "byteOffset": 1200,
      "name": "normal - boxL",
      "byteStride": 12
    },
    {
      "buffer": 0,
      "byteLength": 192,
      "byteOffset": 1488,
      "name": "uv - boxL",
      "byteStride": 8
    },
    {
      "buffer": 0,
      "byteLength": 144,
      "byteOffset": 1680,
      "name": "Indices - boxL"
    },
    {
      "buffer": 0,
      "byteLength": 288,
      "byteOffset": 1824,
      "name": "position - boxR",
      "byteStride": 12
    },
    {
      "buffer": 0,
      "byteLength": 288,
      "byteOffset": 2112,
      "name": "normal - boxR",
      "byteStride": 12
    },
    {
      "buffer": 0,
      "byteLength": 192,
      "byteOffset": 2400,
      "name": "uv - boxR",
      "byteStride": 8
    },
    {
      "buffer": 0,
      "byteLength": 144,
      "byteOffset": 2592,
      "name": "Indices - boxR"
    },
    {
      "buffer": 0,
      "byteLength": 288,
      "byteOffset": 2736,
      "name": "position - boxF",
      "byteStride": 12
    },
    {
      "buffer": 0,
      "byteLength": 288,
      "byteOffset": 3024,
      "name": "normal - boxF",
      "byteStride": 12
    },
    {
      "buffer": 0,
      "byteLength": 192,
      "byteOffset": 3312,
      "name": "uv - boxF",
      "byteStride": 8
    },
    {
      "buffer": 0,
      "byteLength": 144,
      "byteOffset": 3504,
      "name": "Indices - boxF"
    },
    {
      "buffer": 0,
      "byteLength": 288,
      "byteOffset": 3648,
      "name": "position - boxB",
      "byteStride": 12
    },
    {
      "buffer": 0,
      "byteLength": 288,
      "byteOffset": 3936,
      "name": "normal - boxB",
      "byteStride": 12
    },
    {
      "buffer": 0,
      "byteLength": 192,
      "byteOffset": 4224,
      "name": "uv - boxB",
      "byteStride": 8
    },
    {
      "buffer": 0,
      "byteLength": 144,
      "byteOffset": 4416,
      "name": "Indices - boxB"
    },
    {
      "buffer": 0,
      "byteLength": 288,
      "byteOffset": 4560,
      "name": "position - boxBottom",
      "byteStride": 12
    },
    {
      "buffer": 0,
      "byteLength": 288,
      "byteOffset": 4848,
      "name": "normal - boxBottom",
      "byteStride": 12
    },
    {
      "buffer": 0,
      "byteLength": 192,
      "byteOffset": 5136,
      "name": "uv - boxBottom",
      "byteStride": 8
    },
    {
      "buffer": 0,
      "byteLength": 144,
      "byteOffset": 5328,
      "name": "Indices - boxBottom"
    },
    {
      "buffer": 0,
      "byteLength": 288,
      "byteOffset": 5472,
      "name": "position - boxTopL",
      "byteStride": 12
    },
    {
      "buffer": 0,
      "byteLength": 288,
      "byteOffset": 5760,
      "name": "normal - boxTopL",
      "byteStride": 12
    },
    {
      "buffer": 0,
      "byteLength": 192,
      "byteOffset": 6048,
      "name": "uv - boxTopL",
      "byteStride": 8
    },
    {
      "buffer": 0,
      "byteLength": 144,
      "byteOffset": 6240,
      "name": "Indices - boxTopL"
    },
    {
      "buffer": 0,
      "byteLength": 288,
      "byteOffset": 6384,
      "name": "position - boxTopR",
      "byteStride": 12
    },
    {
      "buffer": 0,
      "byteLength": 288,
      "byteOffset": 6672,
      "name": "normal - boxTopR",
      "byteStride": 12
    },
    {
      "buffer": 0,
      "byteLength": 192,
      "byteOffset": 6960,
      "name": "uv - boxTopR",
      "byteStride": 8
    },
    {
      "buffer": 0,
      "byteLength": 144,
      "byteOffset": 7152,
      "name": "Indices - boxTopR"
    },
    {
      "buffer": 0,
      "byteLength": 288,
      "byteOffset": 7296,
      "name": "position - boxTopF",
      "byteStride": 12
    },
    {
      "buffer": 0,
      "byteLength": 288,
      "byteOffset": 7584,
      "name": "normal - boxTopF",
      "byteStride": 12
    },
    {
      "buffer": 0,
      "byteLength": 192,
      "byteOffset": 7872,
      "name": "uv - boxTopF",
      "byteStride": 8
    },
    {
      "buffer": 0,
      "byteLength": 144,
      "byteOffset": 8064,
      "name": "Indices - boxTopF"
    },
    {
      "buffer": 0,
      "byteLength": 288,
      "byteOffset": 8208,
      "name": "position - boxTopB",
      "byteStride": 12
    },
    {
      "buffer": 0,
      "byteLength": 288,
      "byteOffset": 8496,
      "name": "normal - boxTopB",
      "byteStride": 12
    },
    {
      "buffer": 0,
      "byteLength": 192,
      "byteOffset": 8784,
      "name": "uv - boxTopB",
      "byteStride": 8
    },
    {
      "buffer": 0,
      "byteLength": 144,
      "byteOffset": 8976,
      "name": "Indices - boxTopB"
    },
    {
      "buffer": 0,
      "byteLength": 288,
      "byteOffset": 9120,
      "name": "position - hingeL",
      "byteStride": 12
    },
    {
      "buffer": 0,
      "byteLength": 288,
      "byteOffset": 9408,
      "name": "normal - hingeL",
      "byteStride": 12
    },
    {
      "buffer": 0,
      "byteLength": 192,
      "byteOffset": 9696,
      "name": "uv - hingeL",
      "byteStride": 8
    },
    {
      "buffer": 0,
      "byteLength": 144,
      "byteOffset": 9888,
      "name": "Indices - hingeL"
    },
    {
      "buffer": 0,
      "byteLength": 288,
      "byteOffset": 10032,
      "name": "position - hingeR",
      "byteStride": 12
    },
    {
      "buffer": 0,
      "byteLength": 288,
      "byteOffset": 10320,
      "name": "normal - hingeR",
      "byteStride": 12
    },
    {
      "buffer": 0,
      "byteLength": 192,
      "byteOffset": 10608,
      "name": "uv - hingeR",
      "byteStride": 8
    },
    {
      "buffer": 0,
      "byteLength": 144,
      "byteOffset": 10800,
      "name": "Indices - hingeR"
    },
    {
      "buffer": 0,
      "byteLength": 288,
      "byteOffset": 10944,
      "name": "position - hingeF",
      "byteStride": 12
    },
    {
      "buffer": 0,
      "byteLength": 288,
      "byteOffset": 11232,
      "name": "normal - hingeF",
      "byteStride": 12
    },
    {
      "buffer": 0,
      "byteLength": 192,
      "byteOffset": 11520,
      "name": "uv - hingeF",
      "byteStride": 8
    },
    {
      "buffer": 0,
      "byteLength": 144,
      "byteOffset": 11712,
      "name": "Indices - hingeF"
    },
    {
      "buffer": 0,
      "byteLength": 288,
      "byteOffset": 11856,
      "name": "position - hingeB",
      "byteStride": 12
    },
    {
      "buffer": 0,
      "byteLength": 288,
      "byteOffset": 12144,
      "name": "normal - hingeB",
      "byteStride": 12
    },
    {
      "buffer": 0,
      "byteLength": 192,
      "byteOffset": 12432,
      "name": "uv - hingeB",
      "byteStride": 8
    },
    {
      "buffer": 0,
      "byteLength": 144,
      "byteOffset": 12624,
      "name": "Indices - hingeB"
    }
  ],
  "accessors": [
    {
      "name": "position - box",
      "bufferView": 0,
      "componentType": 5126,
      "count": 24,
      "type": "VEC3",
      "min": [
        -0.005,
        -0.005,
        -0.005
      ],
      "max": [
        0.005,
        0.005,
        0.005
      ],
      "byteOffset": 0
    },
    {
      "name": "normal - box",
      "bufferView": 1,
      "componentType": 5126,
      "count": 24,
      "type": "VEC3",
      "byteOffset": 0
    },
    {
      "name": "indices - box",
      "bufferView": 3,
      "componentType": 5125,
      "count": 36,
      "type": "SCALAR",
      "byteOffset": 0
    },
    {
      "name": "position - boxL",
      "bufferView": 4,
      "componentType": 5126,
      "count": 24,
      "type": "VEC3",
      "min": [
        -0.05,
        -2.35,
        -2.35
      ],
      "max": [
        0.05,
        2.35,
        2.35
      ],
      "byteOffset": 0
    },
    {
      "name": "normal - boxL",
      "bufferView": 5,
      "componentType": 5126,
      "count": 24,
      "type": "VEC3",
      "byteOffset": 0
    },
    {
      "name": "indices - boxL",
      "bufferView": 7,
      "componentType": 5125,
      "count": 36,
      "type": "SCALAR",
      "byteOffset": 0
    },
    {
      "name": "position - boxR",
      "bufferView": 8,
      "componentType": 5126,
      "count": 24,
      "type": "VEC3",
      "min": [
        -0.05,
        -2.35,
        -2.35
      ],
      "max": [
        0.05,
        2.35,
        2.35
      ],
      "byteOffset": 0
    },
    {
      "name": "normal - boxR",
      "bufferView": 9,
      "componentType": 5126,
      "count": 24,
      "type": "VEC3",
      "byteOffset": 0
    },
    {
      "name": "indices - boxR",
      "bufferView": 11,
      "componentType": 5125,
      "count": 36,
      "type": "SCALAR",
      "byteOffset": 0
    },
    {
      "name": "position - boxF",
      "bufferView": 12,
      "componentType": 5126,
      "count": 24,
      "type": "VEC3",
      "min": [
        -3.12,
        -2.35,
        -0.05
      ],
      "max": [
        3.12,
        2.35,
        0.05
      ],
      "byteOffset": 0
    },
    {
      "name": "normal - boxF",
      "bufferView": 13,
      "componentType": 5126,
      "count": 24,
      "type": "VEC3",
      "byteOffset": 0
    },
    {
      "name": "indices - boxF",
      "bufferView": 15,
      "componentType": 5125,
      "count": 36,
      "type": "SCALAR",
      "byteOffset": 0
    },
    {
      "name": "position - boxB",
      "bufferView": 16,
      "componentType": 5126,
      "count": 24,
      "type": "VEC3",
      "min": [
        -3.12,
        -2.35,
        -0.05
      ],
      "max": [
        3.12,
        2.35,
        0.05
      ],
      "byteOffset": 0
    },
    {
      "name": "normal - boxB",
      "bufferView": 17,
      "componentType": 5126,
      "count": 24,
      "type": "VEC3",
      "byteOffset": 0
    },
    {
      "name": "indices - boxB",
      "bufferView": 19,
      "componentType": 5125,
      "count": 36,
      "type": "SCALAR",
      "byteOffset": 0
    },
    {
      "name": "position - boxBottom",
      "bufferView": 20,
      "componentType": 5126,
      "count": 24,
      "type": "VEC3",
      "min": [
        -3.12,
        -0.05,
        -2.35
      ],
      "max": [
        3.12,
        0.05,
        2.35
      ],
      "byteOffset": 0
    },
    {
      "name": "normal - boxBottom",
      "bufferView": 21,
      "componentType": 5126,
      "count": 24,
      "type": "VEC3",
      "byteOffset": 0
    },
    {
      "name": "indices - boxBottom",
      "bufferView": 23,
      "componentType": 5125,
      "count": 36,
      "type": "SCALAR",
      "byteOffset": 0
    },
    {
      "name": "position - boxTopL",
      "bufferView": 24,
      "componentType": 5126,
      "count": 24,
      "type": "VEC3",
      "min": [
        -0.05,
        -1.175,
        -2.35
      ],
      "max": [
        0.05,
        1.175,
        2.35
      ],
      "byteOffset": 0
    },
    {
      "name": "normal - boxTopL",
      "bufferView": 25,
      "componentType": 5126,
      "count": 24,
      "type": "VEC3",
      "byteOffset": 0
    },
    {
      "name": "indices - boxTopL",
      "bufferView": 27,
      "componentType": 5125,
      "count": 36,
      "type": "SCALAR",
      "byteOffset": 0
    },
    {
      "name": "position - boxTopR",
      "bufferView": 28,
      "componentType": 5126,
      "count": 24,
      "type": "VEC3",
      "min": [
        -0.05,
        -1.175,
        -2.35
      ],
      "max": [
        0.05,
        1.175,
        2.35
      ],
      "byteOffset": 0
    },
    {
      "name": "normal - boxTopR",
      "bufferView": 29,
      "componentType": 5126,
      "count": 24,
      "type": "VEC3",
      "byteOffset": 0
    },
    {
      "name": "indices - boxTopR",
      "bufferView": 31,
      "componentType": 5125,
      "count": 36,
      "type": "SCALAR",
      "byteOffset": 0
    },
    {
      "name": "position - boxTopF",
      "bufferView": 32,
      "componentType": 5126,
      "count": 24,
      "type": "VEC3",
      "min": [
        -3.12,
        -1.175,
        -0.05
      ],
      "max": [
        3.12,
        1.175,
        0.05
      ],
      "byteOffset": 0
    },
    {
      "name": "normal - boxTopF",
      "bufferView": 33,
      "componentType": 5126,
      "count": 24,
      "type": "VEC3",
      "byteOffset": 0
    },
    {
      "name": "indices - boxTopF",
      "bufferView": 35,
      "componentType": 5125,
      "count": 36,
      "type": "SCALAR",
      "byteOffset": 0
    },
    {
      "name": "position - boxTopB",
      "bufferView": 36,
      "componentType": 5126,
      "count": 24,
      "type": "VEC3",
      "min": [
        -3.12,
        -1.175,
        -0.05
      ],
      "max": [
        3.12,
        1.175,
        0.05
      ],
      "byteOffset": 0
    },
    {
      "name": "normal - boxTopB",
      "bufferView": 37,
      "componentType": 5126,
      "count": 24,
      "type": "VEC3",
      "byteOffset": 0
    },
    {
      "name": "indices - boxTopB",
      "bufferView": 39,
      "componentType": 5125,
      "count": 36,
      "type": "SCALAR",
      "byteOffset": 0
    },
    {
      "name": "position - hingeL",
      "bufferView": 40,
      "componentType": 5126,
      "count": 24,
      "type": "VEC3",
      "min": [
        -0.005,
        -0.005,
        -0.005
      ],
      "max": [
        0.005,
        0.005,
        0.005
      ],
      "byteOffset": 0
    },
    {
      "name": "normal - hingeL",
      "bufferView": 41,
      "componentType": 5126,
      "count": 24,
      "type": "VEC3",
      "byteOffset": 0
    },
    {
      "name": "indices - hingeL",
      "bufferView": 43,
      "componentType": 5125,
      "count": 36,
      "type": "SCALAR",
      "byteOffset": 0
    },
    {
      "name": "position - hingeR",
      "bufferView": 44,
      "componentType": 5126,
      "count": 24,
      "type": "VEC3",
      "min": [
        -0.005,
        -0.005,
        -0.005
      ],
      "max": [
        0.005,
        0.005,
        0.005
      ],
      "byteOffset": 0
    },
    {
      "name": "normal - hingeR",
      "bufferView": 45,
      "componentType": 5126,
      "count": 24,
      "type": "VEC3",
      "byteOffset": 0
    },
    {
      "name": "indices - hingeR",
      "bufferView": 47,
      "componentType": 5125,
      "count": 36,
      "type": "SCALAR",
      "byteOffset": 0
    },
    {
      "name": "position - hingeF",
      "bufferView": 48,
      "componentType": 5126,
      "count": 24,
      "type": "VEC3",
      "min": [
        -0.005,
        -0.005,
        -0.005
      ],
      "max": [
        0.005,
        0.005,
        0.005
      ],
      "byteOffset": 0
    },
    {
      "name": "normal - hingeF",
      "bufferView": 49,
      "componentType": 5126,
      "count": 24,
      "type": "VEC3",
      "byteOffset": 0
    },
    {
      "name": "indices - hingeF",
      "bufferView": 51,
      "componentType": 5125,
      "count": 36,
      "type": "SCALAR",
      "byteOffset": 0
    },
    {
      "name": "position - hingeB",
      "bufferView": 52,
      "componentType": 5126,
      "count": 24,
      "type": "VEC3",
      "min": [
        -0.005,
        -0.005,
        -0.005
      ],
      "max": [
        0.005,
        0.005,
        0.005
      ],
      "byteOffset": 0
    },
    {
      "name": "normal - hingeB",
      "bufferView": 53,
      "componentType": 5126,
      "count": 24,
      "type": "VEC3",
      "byteOffset": 0
    },
    {
      "name": "indices - hingeB",
      "bufferView": 55,
      "componentType": 5125,
      "count": 36,
      "type": "SCALAR",
      "byteOffset": 0
    }
  ],
  "materials": [
    {
      "name": "default material",
      "pbrMetallicRoughness": {
        "baseColorFactor": [
          0.5,
          0.5,
          0.5,
          1
        ],
        "metallicFactor": 0,
        "roughnessFactor": 0.3288090062081349
      }
    },
    {
      "name": "material_box",
      "pbrMetallicRoughness": {
        "baseColorFactor": [
          0.43356776876045233,
          0.35058475076570106,
          0.27089917797506846,
          1
        ],
        "metallicFactor": 0,
        "roughnessFactor": 0.3288090062081349
      }
    }
  ]
}