{
  "asset": {
    "generator": "Babylon.js v6.10.0",
    "version": "2.0"
  },
  "buffers": [
    {
      "uri": "CardboardBox_data.bin",
      "byteLength": 8208
    }
  ],
  "nodes": [
    {
      "name": "cardboardBox",
      "mesh": 0,
      "rotation": [
        0,
        0,
        1,
        0
      ],
      "scale": [
        1,
        -1,
        1
      ]
    }
  ],
  "meshes": [
    {
      "primitives": [
        {
          "attributes": {
            "POSITION": 0,
            "NORMAL": 1
          },
          "indices": 2,
          "material": 0
        }
      ]
    }
  ],
  "scenes": [
    {
      "nodes": [
        0
      ]
    }
  ],
  "scene": 0,
  "bufferViews": [
    {
      "buffer": 0,
      "byteLength": 2592,
      "name": "position - cardboardBox",
      "byteStride": 12,
      "byteOffset": 0
    },
    {
      "buffer": 0,
      "byteLength": 2592,
      "byteOffset": 2592,
      "name": "normal - cardboardBox",
      "byteStride": 12
    },
    {
      "buffer": 0,
      "byteLength": 1728,
      "byteOffset": 5184,
      "name": "uv - cardboardBox",
      "byteStride": 8
    },
    {
      "buffer": 0,
      "byteLength": 1296,
      "byteOffset": 6912,
      "name": "Indices - cardboardBox"
    }
  ],
  "accessors": [
    {
      "name": "position - cardboardBox",
      "bufferView": 0,
      "componentType": 5126,
      "count": 216,
      "type": "VEC3",
      "min": [
        -4.764023165404796,
        -4.7499998092651365,
        -3.9940231844782828
      ],
      "max": [
        4.764023165404796,
        1.6440232798457146,
        3.9940231844782828
      ],
      "byteOffset": 0
    },
    {
      "name": "normal - cardboardBox",
      "bufferView": 1,
      "componentType": 5126,
      "count": 216,
      "type": "VEC3",
      "byteOffset": 0
    },
    {
      "name": "indices - cardboardBox",
      "bufferView": 3,
      "componentType": 5125,
      "count": 324,
      "type": "SCALAR",
      "byteOffset": 0
    }
  ],
  "materials": [
    {
      "name": "material_box",
      "pbrMetallicRoughness": {
        "baseColorFactor": [
          0.43356776876045233,
          0.35058475076570106,
          0.27089917797506846,
          1
        ],
        "metallicFactor": 0,
        "roughnessFactor": 0.3288090062081349
      }
    }
  ]
}