{
  "asset": {
    "generator": "Babylon.js v6.9.0",
    "version": "2.0"
  },
  "extensionsUsed": [
    "KHR_texture_transform"
  ],
  "extensions": {},
  "buffers": [
    {
      "uri": "Shogi_data.bin",
      "byteLength": 1432
    }
  ],
  "nodes": [
    {
      "name": "mesh",
      "mesh": 0,
      "rotation": [
        0,
        0,
        1,
        0
      ],
      "scale": [
        1,
        -1,
        1
      ]
    }
  ],
  "meshes": [
    {
      "primitives": [
        {
          "attributes": {
            "POSITION": 0,
            "NORMAL": 1,
            "TEXCOORD_0": 2
          },
          "indices": 3,
          "material": 0
        }
      ]
    }
  ],
  "scenes": [
    {
      "nodes": [
        0
      ]
    }
  ],
  "scene": 0,
  "bufferViews": [
    {
      "buffer": 0,
      "byteLength": 456,
      "name": "position - mesh",
      "byteStride": 12,
      "byteOffset": 0
    },
    {
      "buffer": 0,
      "byteLength": 456,
      "byteOffset": 456,
      "name": "normal - mesh",
      "byteStride": 12
    },
    {
      "buffer": 0,
      "byteLength": 304,
      "byteOffset": 912,
      "name": "uv - mesh",
      "byteStride": 8
    },
    {
      "buffer": 0,
      "byteLength": 216,
      "byteOffset": 1216,
      "name": "Indices - mesh"
    }
  ],
  "accessors": [
    {
      "name": "position - mesh",
      "bufferView": 0,
      "componentType": 5126,
      "count": 38,
      "type": "VEC3",
      "min": [
        -0.800000011920929,
        -0.800000011920929,
        -0.2240000069141388
      ],
      "max": [
        0.800000011920929,
        0.9599999785423279,
        0.2240000069141388
      ],
      "byteOffset": 0
    },
    {
      "name": "normal - mesh",
      "bufferView": 1,
      "componentType": 5126,
      "count": 38,
      "type": "VEC3",
      "byteOffset": 0
    },
    {
      "name": "uv - mesh",
      "bufferView": 2,
      "componentType": 5126,
      "count": 38,
      "type": "VEC2",
      "byteOffset": 0
    },
    {
      "name": "indices - mesh",
      "bufferView": 3,
      "componentType": 5125,
      "count": 54,
      "type": "SCALAR",
      "byteOffset": 0
    }
  ],
  "materials": [
    {
      "name": "material",
      "doubleSided": true,
      "pbrMetallicRoughness": {
        "baseColorFactor": [
          0.5,
          0.5,
          0.5,
          1
        ],
        "metallicFactor": 0,
        "roughnessFactor": 0.3288090062081349,
        "baseColorTexture": {
          "index": 0,
          "extensions": {
            "KHR_texture_transform": {
              "scale": [
                1,
                -1
              ]
            }
          }
        }
      }
    }
  ],
  "textures": [
    {
      "source": 0,
      "sampler": 0
    }
  ],
  "samplers": [
    {
      "magFilter": 9729,
      "minFilter": 9987
    }
  ],
  "images": [
    {
      "name": "Shogi",
      "uri": "Shogi.png"
    }
  ]
}