{
  "asset": {
    "generator": "Babylon.js v6.12.3",
    "version": "2.0"
  },
  "buffers": [
    {
      "uri": "Baran_data.bin",
      "byteLength": 9072
    }
  ],
  "nodes": [
    {
      "name": "polytri",
      "mesh": 0,
      "rotation": [
        0,
        0,
        1,
        0
      ],
      "scale": [
        1,
        -1,
        1
      ]
    }
  ],
  "meshes": [
    {
      "primitives": [
        {
          "attributes": {
            "POSITION": 0,
            "NORMAL": 1,
            "TEXCOORD_0": 2
          },
          "indices": 3,
          "material": 0
        }
      ]
    }
  ],
  "scenes": [
    {
      "nodes": [
        0
      ]
    }
  ],
  "scene": 0,
  "bufferViews": [
    {
      "buffer": 0,
      "byteLength": 2736,
      "name": "position - polytri",
      "byteStride": 12,
      "byteOffset": 0
    },
    {
      "buffer": 0,
      "byteLength": 2736,
      "byteOffset": 2736,
      "name": "normal - polytri",
      "byteStride": 12
    },
    {
      "buffer": 0,
      "byteLength": 1824,
      "byteOffset": 5472,
      "name": "uv - polytri",
      "byteStride": 8
    },
    {
      "buffer": 0,
      "byteLength": 1776,
      "byteOffset": 7296,
      "name": "Indices - polytri"
    }
  ],
  "accessors": [
    {
      "name": "position - polytri",
      "bufferView": 0,
      "componentType": 5126,
      "count": 228,
      "type": "VEC3",
      "min": [
        -0.5,
        -0.001,
        -0.25
      ],
      "max": [
        0.5,
        0,
        0.494140625
      ],
      "byteOffset": 0
    },
    {
      "name": "normal - polytri",
      "bufferView": 1,
      "componentType": 5126,
      "count": 228,
      "type": "VEC3",
      "byteOffset": 0
    },
    {
      "name": "uv - polytri",
      "bufferView": 2,
      "componentType": 5126,
      "count": 228,
      "type": "VEC2",
      "byteOffset": 0
    },
    {
      "name": "indices - polytri",
      "bufferView": 3,
      "componentType": 5125,
      "count": 444,
      "type": "SCALAR",
      "byteOffset": 0
    }
  ],
  "materials": [
    {
      "name": "material_baran",
      "pbrMetallicRoughness": {
        "baseColorFactor": [
          0.5,
          0.5,
          0.5,
          1
        ],
        "metallicFactor": 0,
        "roughnessFactor": 0.3288090062081349,
        "baseColorTexture": {
          "index": 0
        }
      }
    }
  ],
  "textures": [
    {
      "source": 0,
      "sampler": 0
    }
  ],
  "samplers": [
    {
      "wrapS": 33071,
      "wrapT": 33071,
      "magFilter": 9729,
      "minFilter": 9987
    }
  ],
  "images": [
    {
      "name": "dynamic texture image",
      "uri": "Baran_img0.png"
    }
  ]
}