{
  "asset": {
    "generator": "Babylon.js v6.16.0",
    "version": "2.0"
  },
  "buffers": [
    {
      "uri": "ShogiBoard_data.bin",
      "byteLength": 912
    }
  ],
  "nodes": [
    {
      "name": "board",
      "mesh": 0,
      "rotation": [
        0,
        0,
        1,
        0
      ],
      "scale": [
        1,
        -1,
        1
      ]
    }
  ],
  "meshes": [
    {
      "primitives": [
        {
          "attributes": {
            "POSITION": 0,
            "NORMAL": 1,
            "TEXCOORD_0": 2
          },
          "indices": 3,
          "material": 0
        },
        {
          "attributes": {
            "POSITION": 4,
            "NORMAL": 5,
            "TEXCOORD_0": 6
          },
          "indices": 7,
          "material": 0
        },
        {
          "attributes": {
            "POSITION": 8,
            "NORMAL": 9,
            "TEXCOORD_0": 10
          },
          "indices": 11,
          "material": 0
        },
        {
          "attributes": {
            "POSITION": 12,
            "NORMAL": 13,
            "TEXCOORD_0": 14
          },
          "indices": 15,
          "material": 0
        },
        {
          "attributes": {
            "POSITION": 16,
            "NORMAL": 17,
            "TEXCOORD_0": 18
          },
          "indices": 19,
          "material": 1
        },
        {
          "attributes": {
            "POSITION": 20,
            "NORMAL": 21,
            "TEXCOORD_0": 22
          },
          "indices": 23,
          "material": 0
        }
      ]
    }
  ],
  "scenes": [
    {
      "nodes": [
        0
      ]
    }
  ],
  "scene": 0,
  "bufferViews": [
    {
      "buffer": 0,
      "byteLength": 288,
      "name": "position - board",
      "byteStride": 12,
      "byteOffset": 0
    },
    {
      "buffer": 0,
      "byteLength": 288,
      "byteOffset": 288,
      "name": "normal - board",
      "byteStride": 12
    },
    {
      "buffer": 0,
      "byteLength": 192,
      "byteOffset": 576,
      "name": "uv - board",
      "byteStride": 8
    },
    {
      "buffer": 0,
      "byteLength": 144,
      "byteOffset": 768,
      "name": "Indices - board"
    }
  ],
  "accessors": [
    {
      "name": "position - board",
      "bufferView": 0,
      "componentType": 5126,
      "count": 24,
      "type": "VEC3",
      "min": [
        -17,
        -2.8,
        -18.3
      ],
      "max": [
        17,
        2.8,
        18.3
      ],
      "byteOffset": 0
    },
    {
      "name": "normal - board",
      "bufferView": 1,
      "componentType": 5126,
      "count": 24,
      "type": "VEC3",
      "byteOffset": 0
    },
    {
      "name": "uv - board",
      "bufferView": 2,
      "componentType": 5126,
      "count": 24,
      "type": "VEC2",
      "byteOffset": 0
    },
    {
      "name": "indices - board",
      "bufferView": 3,
      "componentType": 5125,
      "count": 6,
      "type": "SCALAR",
      "byteOffset": 0
    },
    {
      "name": "position - board",
      "bufferView": 0,
      "componentType": 5126,
      "count": 24,
      "type": "VEC3",
      "min": [
        -17,
        -2.8,
        -18.3
      ],
      "max": [
        17,
        2.8,
        18.3
      ],
      "byteOffset": 0
    },
    {
      "name": "normal - board",
      "bufferView": 1,
      "componentType": 5126,
      "count": 24,
      "type": "VEC3",
      "byteOffset": 0
    },
    {
      "name": "uv - board",
      "bufferView": 2,
      "componentType": 5126,
      "count": 24,
      "type": "VEC2",
      "byteOffset": 0
    },
    {
      "name": "indices - board",
      "bufferView": 3,
      "componentType": 5125,
      "count": 6,
      "type": "SCALAR",
      "byteOffset": 24
    },
    {
      "name": "position - board",
      "bufferView": 0,
      "componentType": 5126,
      "count": 24,
      "type": "VEC3",
      "min": [
        -17,
        -2.8,
        -18.3
      ],
      "max": [
        17,
        2.8,
        18.3
      ],
      "byteOffset": 0
    },
    {
      "name": "normal - board",
      "bufferView": 1,
      "componentType": 5126,
      "count": 24,
      "type": "VEC3",
      "byteOffset": 0
    },
    {
      "name": "uv - board",
      "bufferView": 2,
      "componentType": 5126,
      "count": 24,
      "type": "VEC2",
      "byteOffset": 0
    },
    {
      "name": "indices - board",
      "bufferView": 3,
      "componentType": 5125,
      "count": 6,
      "type": "SCALAR",
      "byteOffset": 48
    },
    {
      "name": "position - board",
      "bufferView": 0,
      "componentType": 5126,
      "count": 24,
      "type": "VEC3",
      "min": [
        -17,
        -2.8,
        -18.3
      ],
      "max": [
        17,
        2.8,
        18.3
      ],
      "byteOffset": 0
    },
    {
      "name": "normal - board",
      "bufferView": 1,
      "componentType": 5126,
      "count": 24,
      "type": "VEC3",
      "byteOffset": 0
    },
    {
      "name": "uv - board",
      "bufferView": 2,
      "componentType": 5126,
      "count": 24,
      "type": "VEC2",
      "byteOffset": 0
    },
    {
      "name": "indices - board",
      "bufferView": 3,
      "componentType": 5125,
      "count": 6,
      "type": "SCALAR",
      "byteOffset": 72
    },
    {
      "name": "position - board",
      "bufferView": 0,
      "componentType": 5126,
      "count": 24,
      "type": "VEC3",
      "min": [
        -17,
        -2.8,
        -18.3
      ],
      "max": [
        17,
        2.8,
        18.3
      ],
      "byteOffset": 0
    },
    {
      "name": "normal - board",
      "bufferView": 1,
      "componentType": 5126,
      "count": 24,
      "type": "VEC3",
      "byteOffset": 0
    },
    {
      "name": "uv - board",
      "bufferView": 2,
      "componentType": 5126,
      "count": 24,
      "type": "VEC2",
      "byteOffset": 0
    },
    {
      "name": "indices - board",
      "bufferView": 3,
      "componentType": 5125,
      "count": 6,
      "type": "SCALAR",
      "byteOffset": 96
    },
    {
      "name": "position - board",
      "bufferView": 0,
      "componentType": 5126,
      "count": 24,
      "type": "VEC3",
      "min": [
        -17,
        -2.8,
        -18.3
      ],
      "max": [
        17,
        2.8,
        18.3
      ],
      "byteOffset": 0
    },
    {
      "name": "normal - board",
      "bufferView": 1,
      "componentType": 5126,
      "count": 24,
      "type": "VEC3",
      "byteOffset": 0
    },
    {
      "name": "uv - board",
      "bufferView": 2,
      "componentType": 5126,
      "count": 24,
      "type": "VEC2",
      "byteOffset": 0
    },
    {
      "name": "indices - board",
      "bufferView": 3,
      "componentType": 5125,
      "count": 6,
      "type": "SCALAR",
      "byteOffset": 120
    }
  ],
  "materials": [
    {
      "name": "otherMaterial",
      "pbrMetallicRoughness": {
        "baseColorFactor": [
          0.5,
          0.5,
          0.5,
          1
        ],
        "metallicFactor": 0,
        "roughnessFactor": 0.3288090062081349,
        "baseColorTexture": {
          "index": 0
        }
      }
    },
    {
      "name": "topMaterial",
      "pbrMetallicRoughness": {
        "baseColorFactor": [
          0.5,
          0.5,
          0.5,
          1
        ],
        "metallicFactor": 0,
        "roughnessFactor": 0.3288090062081349,
        "baseColorTexture": {
          "index": 1
        }
      }
    }
  ],
  "textures": [
    {
      "source": 0,
      "sampler": 0
    },
    {
      "source": 1,
      "sampler": 1
    }
  ],
  "samplers": [
    {
      "magFilter": 9729,
      "minFilter": 9987
    },
    {
      "wrapS": 33071,
      "wrapT": 33071,
      "magFilter": 9729,
      "minFilter": 9987
    }
  ],
  "images": [
    {
      "name": "textures_albedo image",
      "uri": "ShogiBoard_img0.png"
    },
    {
      "name": "DynamicTexture image",
      "uri": "ShogiBoard_img1.png"
    }
  ]
}